<svg xmlns="http://www.w3.org/2000/svg" width="1180" height="610"><rect width="100%" height="100%" fill="white"/><g><text x="70" y="18" font-size="13" fill="#202124" font-family="Segoe UI,Arial">Original  2166 points  (F1-A-I1)</text><line x1="70" y1="259.9" x2="1160" y2="259.9" stroke="#e8eaed" stroke-width="1"/><text x="6" y="262.9" font-size="10" fill="#5f6368">0.0 A</text><line x1="70" y1="249.2" x2="1160" y2="249.2" stroke="#e8eaed" stroke-width="1"/><text x="6" y="252.2" font-size="10" fill="#5f6368">1.1 A</text><line x1="70" y1="212.5" x2="1160" y2="212.5" stroke="#e8eaed" stroke-width="1"/><text x="6" y="215.5" font-size="10" fill="#5f6368">5.0 A</text><line x1="70" y1="165.1" x2="1160" y2="165.1" stroke="#e8eaed" stroke-width="1"/><text x="6" y="168.1" font-size="10" fill="#5f6368">10.0 A</text><line x1="70" y1="117.7" x2="1160" y2="117.7" stroke="#e8eaed" stroke-width="1"/><text x="6" y="120.7" font-size="10" fill="#5f6368">15.0 A</text><line x1="70" y1="70.3" x2="1160" y2="70.3" stroke="#e8eaed" stroke-width="1"/><text x="6" y="73.3" font-size="10" fill="#5f6368">20.0 A</text><line x1="70" y1="34.0" x2="1160" y2="34.0" stroke="#e8eaed" stroke-width="1"/><text x="6" y="37.0" font-size="10" fill="#5f6368">23.8 A</text><polyline fill="none" stroke="#9aa0a6" stroke-width="1" points="70.0,259.8 70.5,260.0 71.0,259.8 71.5,259.9 72.0,260.0 72.5,259.8 73.0,260.0 73.5,259.8 74.0,259.8 74.5,260.0 75.0,259.8 75.5,260.0 76.0,259.9 76.5,259.8 77.1,260.0 77.5,259.8 78.1,260.0 78.6,259.9 79.1,259.8 79.6,260.0 80.1,259.8 80.6,259.9 81.1,259.9 81.6,259.8 82.1,260.0 82.6,259.8 83.1,259.9 83.6,260.0 84.1,259.8 84.6,260.0 85.1,259.9 85.6,259.8 86.1,260.0 86.6,259.8 87.1,259.9 87.6,259.9 88.1,259.8 88.6,260.0 89.1,259.8 89.6,259.9 90.1,259.9 90.6,259.8 91.1,260.0 91.7,259.8 92.1,259.9 92.6,259.9 93.2,259.8 93.6,260.0 94.2,259.8 94.7,259.9 95.2,259.9 95.7,259.8 96.2,260.0 96.7,259.8 97.2,259.8 97.7,260.0 98.2,259.8 98.7,259.9 99.2,259.9 99.7,259.8 100.2,260.0 100.7,259.8 101.2,259.9 101.7,259.9 102.2,259.8 102.7,260.0 103.2,259.8 103.7,259.9 104.2,259.9 104.7,259.8 105.2,260.0 105.7,259.8 106.2,259.9 106.8,259.9 107.2,259.8 107.8,260.0 108.3,259.8 108.8,259.9 109.3,259.9 109.8,259.8 110.3,259.9 110.8,259.8 111.3,259.9 111.8,259.9 112.3,259.8 112.8,259.9 113.3,259.8 113.8,259.9 114.3,259.9 114.8,259.8 115.3,259.9 115.8,259.9 116.3,259.8 116.8,259.9 117.3,259.8 117.8,259.9 118.3,259.9 118.8,259.8 119.3,259.9 119.8,259.8 120.3,259.9 120.8,259.9 121.4,259.8 121.8,259.9 122.4,259.9 122.9,259.9 123.4,259.9 123.9,259.8 124.4,259.9 124.9,259.9 125.4,259.9 125.9,259.9 126.4,259.8 126.9,259.9 127.4,259.9 127.9,259.8 128.4,259.9 128.9,259.8 129.4,259.9 129.9,259.9 130.4,259.9 130.9,259.9 131.4,259.9 131.9,259.9 132.4,259.9 132.9,259.9 133.4,259.9 133.9,259.8 134.4,259.9 134.9,259.9 135.4,259.9 136.0,259.9 136.4,259.9 137.0,259.9 137.5,259.9 138.0,259.9 138.5,259.9 139.0,259.9 139.5,259.9 140.0,259.9 140.5,259.9 141.0,259.9 141.5,259.8 142.0,259.9 142.5,259.9 143.0,259.9 143.5,259.9 144.0,259.9 144.5,259.9 145.0,259.9 145.5,259.9 146.0,259.9 146.5,259.9 147.0,259.2 147.5,256.9 148.0,256.8 148.5,257.6 149.0,257.7 149.6,257.6 150.0,257.8 150.6,257.9 151.1,258.0 151.6,258.0 152.1,258.0 152.6,257.9 153.1,257.9 153.6,257.9 154.1,257.8 154.6,257.7 155.1,257.7 155.6,257.6 156.1,257.5 156.6,257.4 157.1,257.4 157.6,257.7 158.1,257.8 158.6,257.9 159.1,257.9 159.6,258.0 160.1,258.0 160.6,258.0 161.1,258.0 161.6,257.9 162.1,258.0 162.6,258.0 163.1,258.0 163.6,258.0 164.2,258.0 164.6,258.0 165.2,258.0 165.7,258.0 166.2,258.0 166.7,258.0 167.2,258.0 167.7,258.0 168.2,258.0 168.7,258.0 169.2,257.9 169.7,258.0 170.2,258.0 170.7,258.0 171.2,258.0 171.7,257.9 172.2,258.0 172.7,258.0 173.2,258.0 173.7,258.0 174.2,257.9 174.7,258.0 175.2,258.0 175.7,257.9 176.2,258.0 176.7,257.9 177.2,258.0 177.7,258.0 178.2,258.0 178.8,258.0 179.2,258.0 179.8,258.0 180.3,258.0 180.7,257.9 181.3,258.0 181.8,258.0 182.3,258.0 182.8,258.0 183.3,257.9 183.8,258.0 184.3,258.0 184.8,258.0 185.3,258.0 185.8,258.0 186.3,258.0 186.8,258.0 187.3,257.9 187.8,258.0 188.3,257.9 188.8,258.0 189.3,258.0 189.8,258.0 190.3,258.0 190.8,257.9 191.3,258.0 191.8,258.0 192.4,257.9 192.8,258.0 193.3,258.0 193.9,258.0 194.3,258.0 194.9,257.9 195.4,258.0 195.9,257.9 196.4,258.0 196.9,258.0 197.4,258.0 197.9,258.0 198.4,258.0 198.9,258.0 199.4,258.0 199.9,258.0 200.4,258.0 200.9,257.9 201.4,258.0 201.9,258.0 202.4,257.9 202.9,258.0 203.4,258.0 203.9,258.0 204.4,258.0 204.9,257.9 205.4,258.0 205.9,258.0 206.4,258.0 206.9,258.0 207.4,258.0 207.9,258.0 208.5,257.9 208.9,257.9 209.5,258.0 210.0,257.9 210.5,258.0 211.0,258.0 211.5,258.0 212.0,258.0 212.5,257.9 213.0,258.0 213.5,258.0 214.0,258.0 214.5,258.0 215.0,257.9 215.5,258.0 216.0,258.0 216.5,257.9 217.0,258.0 217.5,257.9 218.0,258.0 218.5,258.0 219.0,257.9 219.5,258.0 220.0,257.9 220.5,258.0 221.0,258.0 221.5,257.9 222.0,258.0 222.5,258.0 223.1,257.9 223.5,258.0 224.1,257.9 224.6,258.0 225.1,258.0 225.6,257.9 226.1,258.1 226.6,257.9 227.1,258.0 227.6,258.0 228.1,257.9 228.6,258.1 229.1,257.9 229.6,258.0 230.1,258.0 230.6,257.9 231.1,258.0 231.6,257.9 232.1,258.0 232.6,258.0 233.1,257.9 233.6,258.0 234.1,257.9 234.6,257.9 235.1,258.0 235.6,257.9 236.1,258.0 236.7,258.0 237.1,258.0 237.7,258.0 238.1,257.9 238.7,258.0 239.2,258.0 239.7,257.9 240.2,258.1 240.7,257.9 241.2,258.0 241.7,258.0 242.2,257.9 242.7,258.1 243.2,257.9 243.7,258.0 244.2,258.0 244.7,257.9 245.2,258.1 245.7,257.9 246.2,258.0 246.7,258.0 247.2,257.9 247.7,258.0 248.2,257.9 248.7,258.0 249.2,258.0 249.7,257.9 250.2,258.0 250.7,257.9 251.3,258.0 251.7,258.0 252.3,257.9 252.8,258.0 253.3,258.0 253.8,257.9 254.3,258.0 254.8,257.9 255.3,258.0 255.8,258.0 256.3,257.9 256.8,258.0 257.3,257.9 257.8,258.0 258.3,258.0 258.8,257.9 259.3,258.0 259.8,257.9 260.3,258.0 260.8,258.0 261.3,257.9 261.8,258.0 262.3,257.9 262.8,258.0 263.3,258.0 263.8,257.9 264.3,258.0 264.8,257.9 265.3,258.0 265.9,258.0 266.3,257.9 266.9,258.0 267.4,258.0 267.9,258.0 268.4,258.0 268.9,257.9 269.4,258.0 269.9,258.0 270.4,257.9 270.9,258.0 271.4,257.9 271.9,258.0 272.4,258.0 272.9,257.9 273.4,258.0 273.9,257.9 274.4,258.0 274.9,258.0 275.4,257.9 275.9,258.0 276.4,257.9 276.9,258.0 277.4,258.0 277.9,257.9 278.4,258.0 278.9,257.9 279.4,258.0 279.9,258.0 280.5,257.9 280.9,258.0 281.4,258.0 282.0,257.9 282.4,258.0 283.0,258.0 283.5,258.0 284.0,258.0 284.5,257.9 285.0,258.0 285.5,258.0 286.0,258.0 286.5,258.0 287.0,257.9 287.5,258.0 288.0,258.0 288.5,257.9 289.0,258.0 289.5,258.0 290.0,257.9 290.5,258.0 291.0,257.9 291.5,258.0 292.0,258.0 292.5,257.9 293.0,258.0 293.5,257.9 294.0,258.0 294.5,258.0 295.0,258.0 295.6,258.0 296.0,257.9 296.6,258.0 297.1,258.0 297.6,257.9 298.1,258.0 298.6,257.9 299.1,258.0 299.6,258.0 300.1,257.9 300.6,258.0 301.1,257.9 301.6,257.9 302.1,258.0 302.6,257.9 303.1,258.0 303.6,257.9 304.1,257.9 304.6,258.0 305.1,257.9 305.6,258.0 306.1,257.9 306.6,257.9 307.1,258.0 307.6,257.9 308.1,258.1 308.6,257.9 309.1,257.9 309.6,258.1 310.2,257.9 310.6,258.0 311.2,258.0 311.7,257.9 312.2,258.1 312.7,257.9 313.2,258.0 313.7,258.0 314.2,257.9 314.7,258.1 315.2,257.9 315.7,258.0 316.2,258.0 316.7,257.9 317.2,258.1 317.7,257.9 318.2,258.0 318.7,258.0 319.2,257.8 319.7,258.1 320.2,257.9 320.7,257.9 321.2,258.1 321.7,257.8 322.2,258.1 322.7,258.0 323.2,257.9 323.7,258.1 324.2,257.8 324.8,258.0 325.2,258.0 325.8,257.9 326.3,258.1 326.8,257.9 327.3,258.0 327.8,258.0 328.3,257.9 328.8,258.1 329.3,257.9 329.8,258.0 330.3,258.0 330.8,257.9 331.3,258.1 331.8,257.9 332.3,258.0 332.8,258.1 333.3,257.8 333.8,258.1 334.3,257.9 334.8,257.9 335.3,258.1 335.8,257.9 336.3,258.0 336.8,258.0 337.3,257.9 337.8,258.1 338.4,257.9 338.8,258.0 339.4,258.0 339.9,257.9 340.4,258.1 340.9,257.9 341.4,258.0 341.9,258.0 342.4,257.9 342.9,258.1 343.4,257.9 343.9,258.0 344.4,258.0 344.9,257.9 345.4,258.1 345.9,257.9 346.4,257.9 346.9,258.1 347.4,257.9 347.9,258.0 348.4,257.9 348.9,257.9 349.4,258.1 349.9,257.9 350.4,258.0 350.9,258.0 351.4,257.9 351.9,258.1 352.4,257.9 353.0,258.0 353.4,258.0 354.0,257.9 354.5,258.0 355.0,257.9 355.5,258.0 356.0,258.0 356.5,257.9 357.0,258.0 357.5,257.9 358.0,258.0 358.5,258.0 359.0,257.9 359.5,258.0 360.0,257.9 360.5,258.0 361.0,258.0 361.5,257.9 362.0,258.0 362.5,257.9 363.0,257.9 363.5,258.0 364.0,257.9 364.5,258.0 365.0,258.0 365.5,257.9 366.0,258.0 366.5,257.9 367.0,258.0 367.6,258.0 368.0,257.9 368.6,258.0 369.1,257.9 369.5,258.0 370.1,258.0 370.6,257.9 371.1,258.0 371.6,257.9 372.1,258.0 372.6,258.0 373.1,257.9 373.6,258.0 374.1,257.9 374.6,258.0 375.1,258.0 375.6,257.9 376.1,258.0 376.6,257.9 377.1,258.0 377.6,258.0 378.1,257.9 378.6,258.0 379.1,258.0 379.6,258.0 380.1,258.0 380.6,257.9 381.2,258.0 381.6,258.0 382.1,257.9 382.7,258.0 383.1,257.9 383.7,258.0 384.2,258.0 384.7,257.9 385.2,258.0 385.7,257.9 386.2,258.0 386.7,258.0 387.2,258.0 387.7,258.0 388.2,258.0 388.7,258.0 389.2,258.0 389.7,258.0 390.2,258.0 390.7,258.0 391.2,258.0 391.7,258.0 392.2,258.0 392.7,258.0 393.2,258.0 393.7,258.0 394.2,258.0 394.7,257.9 395.2,258.0 395.7,258.0 396.2,258.0 396.7,258.0 397.3,258.0 397.7,258.0 398.3,258.0 398.8,258.0 399.3,258.0 399.8,258.0 400.3,258.0 400.8,258.0 401.3,258.0 401.8,258.0 402.3,258.0 402.8,258.0 403.3,257.9 403.8,258.0 404.3,257.9 404.8,258.0 405.3,258.0 405.8,257.9 406.3,258.0 406.8,258.0 407.3,258.0 407.8,258.0 408.3,258.0 408.8,258.0 409.3,258.0 409.8,258.0 410.3,258.0 410.8,258.0 411.3,258.0 411.9,257.9 412.3,258.0 412.9,258.0 413.4,257.9 413.9,258.0 414.4,258.0 414.9,258.0 415.4,258.0 415.9,257.9 416.4,258.0 416.9,257.9 417.4,258.0 417.9,258.0 418.4,257.9 418.9,258.0 419.4,258.0 419.9,258.0 420.4,258.0 420.9,257.9 421.4,258.0 421.9,258.0 422.4,257.9 422.9,258.0 423.4,257.9 423.9,258.0 424.4,258.0 424.9,257.9 425.5,258.0 425.9,258.0 426.5,258.0 426.9,258.0 427.5,257.9 428.0,258.0 428.5,258.0 429.0,258.0 429.5,258.0 430.0,257.9 430.5,258.0 431.0,257.9 431.5,258.0 432.0,258.0 432.5,257.9 433.0,258.0 433.5,258.0 434.0,258.0 434.5,258.0 435.0,258.0 435.5,258.0 436.0,257.9 436.5,258.0 437.0,258.0 437.5,257.9 438.0,258.0 438.5,258.0 439.0,257.9 439.5,258.0 440.1,257.9 440.5,258.0 441.1,258.0 441.6,258.0 442.1,258.0 442.6,257.9 443.1,258.0 443.6,258.0 444.1,257.9 444.6,258.0 445.1,257.9 445.6,258.0 446.1,258.0 446.6,258.0 447.1,258.0 447.6,258.0 448.1,258.0 448.6,258.0 449.1,258.0 449.6,258.0 450.1,257.9 450.6,258.0 451.1,258.0 451.6,257.9 452.1,258.0 452.6,258.0 453.1,258.0 453.6,258.0 454.1,258.0 454.7,258.0 455.1,258.0 455.7,258.0 456.2,258.0 456.7,257.9 457.2,258.0 457.7,257.9 458.2,258.0 458.7,258.0 459.2,257.9 459.7,258.0 460.2,257.9 460.7,258.0 461.2,258.0 461.7,257.9 462.2,258.0 462.7,258.0 463.2,257.9 463.7,258.0 464.2,257.9 464.7,258.0 465.2,258.0 465.7,257.9 466.2,258.0 466.7,257.9 467.2,258.0 467.7,258.0 468.2,257.9 468.7,258.0 469.3,257.9 469.7,258.0 470.2,258.0 470.8,257.9 471.2,258.0 471.8,257.9 472.3,257.9 472.8,258.0 473.3,257.9 473.8,258.0 474.3,257.9 474.8,257.9 475.3,258.0 475.8,257.9 476.3,258.0 476.8,258.0 477.3,257.9 477.8,258.0 478.3,257.9 478.8,258.0 479.3,258.0 479.8,257.9 480.3,258.0 480.8,257.9 481.3,258.0 481.8,258.0 482.3,257.9 482.8,258.0 483.3,257.9 483.8,258.0 484.4,258.0 484.8,257.9 485.4,258.0 485.9,257.9 486.4,258.0 486.9,258.0 487.4,257.9 487.9,258.0 488.4,257.9 488.9,257.9 489.4,258.0 489.9,257.9 490.4,258.0 490.9,257.9 491.4,257.9 491.9,258.0 492.4,257.9 492.9,258.0 493.4,258.0 493.9,257.9 494.4,258.0 494.9,257.9 495.4,258.0 495.9,258.0 496.4,257.9 496.9,258.0 497.4,257.9 497.9,258.0 498.4,258.0 499.0,257.9 499.4,258.0 500.0,257.9 500.5,258.0 501.0,258.0 501.5,257.9 502.0,258.0 502.5,257.9 503.0,257.9 503.5,258.0 504.0,257.9 504.5,258.0 505.0,257.9 505.5,258.0 506.0,258.0 506.5,257.9 507.0,258.0 507.5,257.9 508.0,257.9 508.5,258.0 509.0,257.9 509.5,258.0 510.0,257.9 510.5,258.0 511.0,258.0 511.5,257.9 512.0,258.0 512.5,258.0 513.0,257.9 513.6,258.0 514.0,257.9 514.6,258.0 515.1,258.0 515.6,258.0 516.1,258.0 516.6,257.9 517.1,258.0 517.6,258.0 518.1,258.0 518.6,258.0 519.1,257.9 519.6,258.0 520.1,258.0 520.6,257.9 521.1,258.0 521.6,257.9 522.1,258.0 522.6,258.0 523.1,257.9 523.6,258.0 524.1,258.0 524.6,257.9 525.1,258.0 525.6,257.9 526.1,258.0 526.6,258.0 527.2,257.9 527.6,258.0 528.2,257.9 528.7,257.9 529.2,258.0 529.7,257.9 530.2,258.0 530.7,258.0 531.2,257.9 531.7,258.0 532.2,257.9 532.7,257.9 533.2,258.0 533.7,257.9 534.2,258.0 534.7,258.0 535.2,257.9 535.7,258.0 536.2,257.9 536.7,258.0 537.2,258.0 537.7,257.9 538.2,258.0 538.7,257.9 539.2,257.9 539.7,258.0 540.2,257.9 540.7,258.0 541.2,257.9 541.8,258.0 542.2,258.0 542.8,257.9 543.3,258.0 543.8,257.9 544.3,257.9 544.8,257.9 545.3,257.8 545.8,258.0 546.3,257.9 546.8,257.9 547.3,258.0 547.8,257.9 548.3,258.0 548.8,257.9 549.3,257.9 549.8,258.0 550.3,257.8 550.8,258.0 551.3,257.9 551.8,257.9 552.3,258.0 552.8,257.9 553.3,258.0 553.8,258.0 554.3,257.8 554.8,258.0 555.3,257.9 555.8,258.0 556.4,258.0 556.8,257.8 557.4,258.0 557.9,257.8 558.3,258.0 558.9,258.0 559.4,257.8 559.9,258.0 560.4,257.8 560.9,257.9 561.4,258.0 561.9,257.8 562.4,258.0 562.9,257.9 563.4,257.9 563.9,258.0 564.4,257.8 564.9,258.0 565.4,257.9 565.9,257.9 566.4,258.0 566.9,257.8 567.4,258.0 567.9,257.9 568.4,257.8 568.9,258.1 569.4,257.8 570.0,258.0 570.4,258.0 570.9,257.8 571.5,258.1 571.9,257.8 572.5,257.9 573.0,258.0 573.5,257.8 574.0,258.0 574.5,257.9 575.0,257.9 575.5,258.0 576.0,257.8 576.5,258.0 577.0,257.9 577.5,257.9 578.0,258.0 578.5,257.8 579.0,258.0 579.5,257.9 580.0,257.8 580.5,258.0 581.0,257.8 581.5,258.0 582.0,257.9 582.5,257.8 583.0,258.1 583.5,257.8 584.0,257.9 584.5,258.0 585.0,257.8 585.5,258.0 586.1,257.9 586.5,257.9 587.1,258.0 587.6,257.8 588.1,258.0 588.6,257.9 589.1,257.9 589.6,258.0 590.1,257.8 590.6,258.0 591.1,257.9 591.6,257.9 592.1,258.0 592.6,257.8 593.1,258.0 593.6,257.9 594.1,257.9 594.6,258.0 595.1,257.8 595.6,257.9 596.1,258.0 596.6,257.9 597.1,258.0 597.6,257.9 598.1,257.9 598.6,258.0 599.1,257.8 599.6,257.9 600.1,257.8 600.7,257.9 601.1,257.9 601.7,257.8 602.2,257.9 602.7,257.9 603.2,257.9 603.7,257.9 604.2,257.8 604.7,257.9 605.2,257.9 605.7,257.9 606.2,257.9 606.7,257.8 607.2,257.9 607.7,257.9 608.2,257.9 608.7,258.0 609.2,257.8 609.7,257.9 610.2,257.9 610.7,257.8 611.2,258.0 611.7,257.8 612.2,257.9 612.7,257.9 613.2,257.8 613.7,258.0 614.3,257.9 614.7,257.9 615.3,257.9 615.7,257.8 616.3,257.9 616.8,257.9 617.3,257.9 617.8,257.9 618.3,257.8 618.8,257.9 619.3,257.9 619.8,257.9 620.3,257.9 620.8,257.8 621.3,257.9 621.8,257.9 622.3,257.9 622.8,257.9 623.3,257.9 623.8,257.9 624.3,257.9 624.8,257.9 625.3,257.9 625.8,257.9 626.3,257.9 626.8,257.9 627.3,257.9 627.8,257.9 628.3,257.9 628.9,257.9 629.3,257.9 629.9,257.9 630.4,257.9 630.9,257.9 631.4,257.9 631.9,257.9 632.4,257.9 632.9,257.9 633.4,257.9 633.9,257.9 634.4,257.9 634.9,257.9 635.4,257.9 635.9,257.8 636.4,257.9 636.9,257.9 637.4,257.9 637.9,257.9 638.4,257.9 638.9,257.9 639.4,257.9 639.9,257.9 640.4,257.9 640.9,257.9 641.4,257.9 641.9,257.9 642.4,257.9 642.9,257.9 643.5,257.9 643.9,257.9 644.5,257.9 645.0,257.9 645.5,257.9 646.0,257.9 646.5,257.9 647.0,257.9 647.5,257.9 648.0,257.9 648.5,257.9 649.0,257.9 649.5,257.9 650.0,257.9 650.5,257.9 651.0,257.9 651.5,257.9 652.0,257.9 652.5,257.9 653.0,257.9 653.5,257.9 654.0,257.9 654.5,257.9 655.0,257.9 655.5,257.9 656.0,257.9 656.5,257.9 657.0,257.9 657.5,257.8 658.1,158.8 658.5,104.6 659.0,104.2 659.6,100.6 660.0,100.5 660.6,208.7 661.1,248.5 661.6,253.7 662.1,253.5 662.6,252.6 663.1,252.6 663.6,253.7 664.1,253.9 664.6,254.6 665.1,254.8 665.6,254.7 666.1,254.7 666.6,254.6 667.1,255.0 667.6,254.9 668.1,254.9 668.6,254.9 669.1,255.0 669.6,255.0 670.1,255.2 670.6,255.2 671.1,255.2 671.6,255.2 672.1,255.1 672.6,255.4 673.2,255.2 673.6,255.4 674.2,255.4 674.7,255.4 675.2,255.5 675.7,255.2 676.2,255.4 676.7,255.5 677.2,255.4 677.7,255.7 678.2,255.8 678.7,255.5 679.2,255.4 679.7,255.4 680.2,255.6 680.7,255.7 681.2,255.5 681.7,255.5 682.2,255.7 682.7,255.7 683.2,255.7 683.7,255.5 684.2,255.5 684.7,255.3 685.2,255.4 685.7,255.3 686.2,255.2 686.7,255.7 687.2,255.9 687.8,255.9 688.2,255.9 688.8,255.8 689.3,255.8 689.8,255.4 690.3,255.3 690.8,255.2 691.3,255.6 691.8,255.9 692.3,255.9 692.8,255.6 693.3,255.4 693.8,255.7 694.3,255.8 694.8,255.7 695.3,255.5 695.8,255.3 696.3,255.6 696.8,255.9 697.3,255.9 697.8,255.9 698.3,255.8 698.8,255.8 699.3,255.4 699.8,255.5 700.3,255.8 700.8,255.6 701.3,255.6 701.8,255.7 702.4,255.7 702.8,255.3 703.4,255.6 703.9,255.9 704.4,255.8 704.9,255.9 705.4,255.7 705.9,255.3 706.4,255.6 706.9,255.8 707.4,255.9 707.9,255.8 708.4,255.5 708.9,255.6 709.4,255.6 709.9,255.8 710.4,255.8 710.9,255.8 711.4,255.8 711.9,254.8 712.4,255.1 712.9,255.7 713.4,198.4 713.9,132.4 714.4,113.8 714.9,103.7 715.4,100.6 716.0,108.1 716.4,216.2 717.0,241.9 717.5,244.2 718.0,243.7 718.5,244.7 719.0,244.7 719.5,245.1 720.0,245.6 720.5,245.0 721.0,245.9 721.5,245.8 722.0,245.3 722.5,246.1 723.0,245.8 723.5,244.7 724.0,244.9 724.5,245.6 725.0,246.1 725.5,246.1 726.0,246.2 726.5,246.1 727.0,246.2 727.5,246.6 728.0,245.6 728.5,246.2 729.0,246.6 729.5,246.5 730.0,247.1 730.6,246.9 731.0,246.4 731.6,246.7 732.1,246.7 732.6,246.6 733.1,245.9 733.6,246.2 734.1,247.2 734.6,247.0 735.1,246.4 735.6,246.0 736.1,246.3 736.6,246.4 737.1,246.0 737.6,246.6 738.1,246.4 738.6,246.6 739.1,247.0 739.6,246.7 740.1,246.4 740.6,246.6 741.1,246.2 741.6,246.7 742.1,245.8 742.6,245.3 743.1,246.8 743.6,246.4 744.1,246.7 744.6,246.6 745.2,246.2 745.6,246.1 746.2,246.2 746.7,247.0 747.1,247.0 747.7,246.5 748.2,246.7 748.7,246.1 749.2,246.4 749.7,246.9 750.2,246.5 750.7,246.6 751.2,246.7 751.7,247.2 752.2,246.0 752.7,246.3 753.2,246.6 753.7,246.6 754.2,246.5 754.7,246.7 755.2,246.1 755.7,246.6 756.2,246.8 756.7,247.1 757.2,247.0 757.7,246.7 758.2,247.0 758.8,246.7 759.2,246.7 759.7,246.3 760.3,246.2 760.7,246.6 761.3,246.3 761.8,246.7 762.3,246.8 762.8,246.4 763.3,246.7 763.8,246.6 764.3,246.7 764.8,246.3 765.3,245.2 765.8,246.4 766.3,247.6 766.8,248.9 767.3,249.1 767.8,249.8 768.3,250.1 768.8,155.2 769.3,34.0 769.8,41.1 770.3,159.7 770.8,233.2 771.3,241.2 771.8,244.7 772.3,245.6 772.8,246.2 773.3,246.6 773.8,247.5 774.3,247.5 774.9,247.1 775.3,246.6 775.9,247.1 776.4,247.4 776.9,247.5 777.4,247.1 777.9,247.4 778.4,247.5 778.9,247.4 779.4,247.5 779.9,247.2 780.4,247.3 780.9,247.5 781.4,247.4 781.9,247.2 782.4,247.4 782.9,247.8 783.4,247.7 783.9,247.6 784.4,247.1 784.9,247.2 785.4,247.0 785.9,247.8 786.4,247.2 786.9,247.1 787.4,247.1 787.9,247.8 788.4,247.8 788.9,247.5 789.5,247.4 789.9,247.5 790.5,247.4 791.0,247.0 791.5,248.1 792.0,247.9 792.5,247.4 793.0,247.6 793.5,246.2 794.0,247.2 794.5,248.6 795.0,248.3 795.5,247.8 796.0,247.9 796.5,247.3 797.0,247.9 797.5,246.7 798.0,247.7 798.5,247.5 799.0,248.3 799.5,247.6 800.0,246.9 800.5,247.1 801.0,248.1 801.5,247.9 802.0,248.0 802.5,247.3 803.1,247.8 803.5,247.6 804.1,247.3 804.5,247.4 805.1,247.0 805.6,247.9 806.1,247.4 806.6,247.9 807.1,247.5 807.6,247.6 808.1,247.9 808.6,247.5 809.1,247.7 809.6,247.2 810.1,247.4 810.6,247.3 811.1,247.7 811.6,247.0 812.1,248.0 812.6,247.5 813.1,247.7 813.6,247.3 814.1,247.1 814.6,247.9 815.1,247.2 815.6,230.6 816.1,228.7 816.6,226.9 817.1,228.0 817.7,227.8 818.1,227.2 818.7,227.3 819.2,227.4 819.7,227.0 820.2,227.5 820.7,226.8 821.2,227.2 821.7,227.0 822.2,226.0 822.7,228.6 823.2,228.1 823.7,223.7 824.2,134.7 824.7,119.0 825.2,225.4 825.7,242.9 826.2,247.1 826.7,247.4 827.2,246.0 827.7,244.1 828.2,226.4 828.7,227.5 829.2,224.2 829.7,225.3 830.2,227.5 830.7,226.8 831.2,226.2 831.7,225.9 832.3,225.2 832.7,226.7 833.3,225.7 833.8,226.2 834.3,226.7 834.8,225.0 835.3,225.1 835.8,227.4 836.3,238.0 836.8,249.5 837.3,246.6 837.8,245.7 838.3,246.8 838.8,247.9 839.3,248.5 839.8,247.1 840.3,234.1 840.8,221.9 841.3,221.1 841.8,222.6 842.3,221.0 842.8,222.4 843.3,221.1 843.8,221.4 844.3,221.7 844.8,220.6 845.3,222.0 845.8,221.5 846.3,220.6 846.9,222.8 847.3,220.9 847.8,221.7 848.4,223.0 848.8,243.0 849.4,248.6 849.9,248.6 850.4,246.6 850.9,247.4 851.4,247.1 851.9,247.1 852.4,247.2 852.9,247.3 853.4,247.6 853.9,246.7 854.4,244.7 854.9,245.2 855.4,245.9 855.9,245.3 856.4,243.6 856.9,245.7 857.4,247.0 857.9,246.7 858.4,247.0 858.9,247.0 859.4,247.3 859.9,247.0 860.4,246.4 860.9,247.0 861.4,246.4 862.0,246.9 862.4,247.0 863.0,246.9 863.5,246.9 864.0,246.7 864.5,246.5 865.0,247.0 865.5,246.9 866.0,247.0 866.5,246.7 867.0,246.8 867.5,246.9 868.0,246.9 868.5,245.7 869.0,247.1 869.5,247.1 870.0,246.7 870.5,246.7 871.0,247.0 871.5,246.9 872.0,246.1 872.5,246.8 873.0,246.5 873.5,246.7 874.0,246.5 874.5,246.3 875.0,246.6 875.5,246.4 876.0,246.6 876.6,246.5 877.0,246.5 877.6,246.4 878.1,246.4 878.6,246.3 879.1,246.3 879.6,246.5 880.1,246.5 880.6,246.1 881.1,246.1 881.6,246.2 882.1,246.0 882.6,246.6 883.1,246.3 883.6,246.3 884.1,246.3 884.6,246.0 885.1,246.2 885.6,246.3 886.1,245.8 886.6,245.5 887.1,244.5 887.6,246.0 888.1,245.7 888.6,246.0 889.1,246.0 889.6,245.7 890.1,246.1 890.6,245.7 891.2,246.0 891.6,245.6 892.2,246.3 892.7,245.8 893.2,245.7 893.7,245.8 894.2,245.8 894.7,245.4 895.2,245.7 895.7,245.6 896.2,246.0 896.7,245.7 897.2,245.6 897.7,245.5 898.2,245.6 898.7,245.6 899.2,245.4 899.7,245.8 900.2,245.6 900.7,245.5 901.2,245.2 901.7,245.6 902.2,245.2 902.7,244.7 903.2,244.8 903.7,245.4 904.2,245.4 904.8,245.2 905.2,245.9 905.8,242.8 906.3,236.6 906.8,236.6 907.3,236.6 907.8,236.7 908.3,236.5 908.8,235.9 909.3,236.4 909.8,235.9 910.3,236.8 910.8,236.8 911.3,235.9 911.8,235.0 912.3,237.5 912.8,236.0 913.3,235.7 913.8,236.5 914.3,235.8 914.8,236.1 915.3,236.4 915.8,236.5 916.3,237.4 916.8,239.4 917.3,238.9 917.8,240.0 918.3,240.1 918.8,240.1 919.4,239.7 919.8,239.8 920.4,240.3 920.9,239.6 921.4,239.7 921.9,240.0 922.4,239.8 922.9,239.5 923.4,240.1 923.9,239.4 924.4,239.5 924.9,239.6 925.4,239.9 925.9,239.5 926.4,239.6 926.9,239.9 927.4,239.2 927.9,239.5 928.4,239.5 928.9,239.3 929.4,239.2 929.9,239.5 930.4,239.3 930.9,239.8 931.4,239.7 931.9,239.2 932.4,239.4 932.9,239.2 933.4,239.3 934.0,239.4 934.4,239.0 935.0,239.0 935.5,238.8 935.9,238.8 936.5,239.7 937.0,239.0 937.5,239.1 938.0,238.8 938.5,238.9 939.0,238.8 939.5,238.9 940.0,239.4 940.5,239.2 941.0,238.4 941.5,238.8 942.0,238.9 942.5,239.0 943.0,238.7 943.5,237.6 944.0,237.8 944.5,239.7 945.0,238.1 945.5,238.2 946.0,238.3 946.5,238.6 947.0,238.5 947.6,238.3 948.0,237.7 948.5,238.5 949.1,237.9 949.5,238.5 950.1,237.6 950.6,238.4 951.1,237.7 951.6,237.8 952.1,237.7 952.6,238.0 953.1,238.3 953.6,237.7 954.1,238.2 954.6,237.1 955.1,238.2 955.6,237.5 956.1,237.8 956.6,237.6 957.1,238.3 957.6,237.5 958.1,237.1 958.6,239.0 959.1,237.2 959.6,237.5 960.1,237.3 960.6,237.5 961.1,237.1 961.6,237.3 962.1,237.2 962.6,238.0 963.1,236.6 963.7,237.3 964.1,236.9 964.7,237.7 965.2,237.5 965.7,236.6 966.2,236.9 966.7,237.8 967.2,236.7 967.7,237.1 968.2,236.7 968.7,237.6 969.2,237.1 969.7,236.6 970.2,237.5 970.7,237.0 971.2,237.5 971.7,236.6 972.2,236.9 972.7,237.1 973.2,237.0 973.7,237.1 974.2,237.4 974.7,236.5 975.2,237.2 975.7,236.6 976.2,236.3 976.7,237.2 977.2,236.0 977.7,237.6 978.3,236.4 978.7,236.8 979.3,236.9 979.8,236.2 980.3,236.5 980.8,236.5 981.3,237.0 981.8,237.1 982.3,235.5 982.8,236.6 983.3,236.3 983.8,236.1 984.3,236.8 984.8,236.1 985.3,236.6 985.8,236.5 986.3,235.9 986.8,235.8 987.3,236.4 987.8,236.0 988.3,235.7 988.8,236.4 989.3,236.5 989.8,236.1 990.3,236.6 990.8,236.6 991.3,236.0 991.9,236.7 992.3,236.2 992.9,236.8 993.3,236.6 993.9,235.9 994.4,236.7 994.9,236.4 995.4,236.5 995.9,236.4 996.4,236.0 996.9,236.4 997.4,236.4 997.9,236.0 998.4,237.0 998.9,235.6 999.4,236.6 999.9,235.9 1000.4,236.3 1000.9,236.2 1001.4,235.8 1001.9,236.2 1002.4,236.0 1002.9,235.8 1003.4,235.8 1003.9,235.8 1004.4,235.8 1004.9,236.7 1005.4,235.9 1005.9,236.2 1006.5,235.3 1006.9,236.2 1007.5,235.5 1008.0,236.0 1008.5,235.5 1009.0,235.5 1009.5,235.9 1010.0,235.9 1010.5,235.6 1011.0,235.9 1011.5,235.4 1012.0,235.6 1012.5,235.5 1013.0,235.2 1013.5,236.1 1014.0,234.9 1014.5,236.0 1015.0,235.6 1015.5,235.4 1016.0,235.3 1016.5,235.7 1017.0,234.5 1017.5,236.9 1018.0,234.5 1018.5,235.2 1019.0,235.6 1019.5,234.9 1020.0,235.7 1020.5,234.6 1021.1,234.9 1021.5,235.8 1022.1,234.7 1022.6,234.7 1023.1,235.7 1023.6,234.3 1024.1,235.1 1024.6,235.2 1025.1,235.1 1025.6,234.8 1026.1,234.3 1026.6,235.9 1027.1,234.5 1027.6,234.2 1028.1,235.0 1028.6,235.1 1029.1,235.0 1029.6,234.9 1030.1,233.9 1030.6,235.9 1031.1,234.2 1031.6,234.8 1032.1,234.3 1032.6,234.4 1033.1,234.6 1033.6,235.1 1034.1,234.8 1034.6,234.7 1035.1,233.7 1035.7,234.7 1036.1,234.7 1036.6,234.6 1037.2,234.9 1037.6,233.9 1038.2,234.7 1038.7,234.5 1039.2,234.5 1039.7,234.1 1040.2,234.0 1040.7,234.2 1041.2,234.8 1041.7,233.9 1042.2,234.3 1042.7,233.9 1043.2,234.1 1043.7,233.9 1044.2,233.8 1044.7,234.6 1045.2,233.7 1045.7,234.0 1046.2,235.6 1046.7,234.1 1047.2,234.6 1047.7,234.0 1048.2,234.5 1048.7,234.4 1049.2,234.9 1049.7,234.6 1050.2,234.3 1050.8,234.3 1051.2,234.9 1051.8,233.7 1052.3,234.9 1052.8,234.2 1053.3,234.3 1053.8,234.7 1054.3,233.9 1054.8,235.0 1055.3,233.5 1055.8,233.8 1056.3,234.8 1056.8,233.9 1057.3,233.6 1057.8,234.6 1058.3,233.7 1058.8,234.4 1059.3,233.8 1059.8,233.9 1060.3,234.0 1060.8,233.8 1061.3,234.4 1061.8,233.7 1062.3,233.4 1062.8,235.0 1063.3,233.0 1063.8,234.5 1064.3,233.5 1064.8,234.2 1065.4,234.3 1065.8,233.1 1066.4,234.1 1066.9,233.5 1067.4,233.0 1067.9,234.4 1068.4,233.3 1068.9,234.0 1069.4,233.5 1069.9,233.6 1070.4,233.8 1070.9,233.4 1071.4,233.5 1071.9,234.0 1072.4,231.8 1072.9,234.7 1073.4,233.0 1073.9,233.8 1074.4,233.9 1074.9,233.6 1075.4,234.2 1075.9,233.9 1076.4,233.8 1076.9,234.3 1077.4,233.7 1077.9,234.0 1078.4,234.3 1078.9,233.8 1079.4,234.0 1080.0,233.1 1080.4,234.3 1081.0,234.1 1081.5,233.3 1082.0,234.3 1082.5,233.3 1083.0,234.2 1083.5,233.9 1084.0,233.2 1084.5,234.2 1085.0,233.0 1085.5,233.5 1086.0,233.8 1086.5,233.5 1087.0,233.8 1087.5,233.2 1088.0,233.7 1088.5,233.5 1089.0,233.2 1089.5,234.0 1090.0,233.4 1090.5,233.6 1091.0,233.4 1091.5,233.8 1092.0,233.9 1092.5,234.2 1093.0,234.1 1093.6,235.1 1094.0,233.7 1094.6,234.0 1095.1,234.4 1095.6,234.5 1096.1,234.4 1096.6,234.3 1097.1,234.2 1097.6,234.4 1098.1,233.8 1098.6,233.5 1099.1,234.7 1099.6,234.4 1100.1,234.7 1100.6,234.5 1101.1,233.9 1101.6,235.5 1102.1,234.6 1102.6,234.6 1103.1,234.1 1103.6,235.3 1104.1,235.0 1104.6,234.5 1105.1,234.9 1105.6,233.6 1106.1,234.5 1106.6,234.4 1107.1,234.6 1107.6,234.8 1108.2,234.4 1108.6,234.6 1109.2,234.9 1109.7,234.5 1110.2,234.6 1110.7,234.1 1111.2,234.1 1111.7,233.6 1112.2,235.2 1112.7,234.2 1113.2,234.8 1113.7,234.2 1114.2,234.0 1114.7,234.2 1115.2,234.7 1115.7,233.8 1116.2,234.9 1116.7,234.4 1117.2,235.1 1117.7,235.0 1118.2,235.1 1118.7,234.8 1119.2,235.0 1119.7,234.3 1120.2,235.3 1120.7,235.0 1121.2,235.1 1121.7,235.4 1122.2,234.9 1122.8,235.6 1123.2,235.0 1123.8,235.4 1124.3,235.5 1124.7,235.3 1125.3,234.2 1125.8,236.3 1126.3,234.8 1126.8,235.3 1127.3,235.4 1127.8,235.3 1128.3,234.5 1128.8,235.3 1129.3,235.5 1129.8,234.7 1130.3,235.7 1130.8,235.8 1131.3,235.9 1131.8,235.9 1132.3,236.0 1132.8,236.7 1133.3,237.1 1133.8,236.7 1134.3,237.0 1134.8,236.3 1135.3,236.8 1135.8,236.7 1136.4,236.7 1136.8,236.4 1137.3,237.4 1137.9,237.0 1138.3,237.0 1138.9,236.9 1139.4,237.5 1139.9,237.3 1140.4,237.3 1140.9,237.2 1141.4,237.1 1141.9,237.1 1142.4,237.2 1142.9,237.0 1143.4,237.4 1143.9,236.9 1144.4,237.5 1144.9,237.7 1145.4,238.2 1145.9,237.8 1146.4,238.2 1146.9,238.0 1147.4,237.9 1147.9,238.7 1148.4,238.0 1148.9,238.3 1149.4,238.4 1149.9,237.2 1150.4,239.6 1150.9,238.0 1151.4,238.1 1151.9,237.5 1152.5,238.7 1152.9,238.7 1153.5,237.9 1154.0,237.2 1154.5,236.4 1155.0,232.2 1155.5,232.1 1156.0,231.6 1156.5,232.7 1157.0,231.9 1157.5,231.8 1158.0,231.8 1158.5,232.0 1159.0,231.8 1159.5,232.4 1160.0,231.5"/></g><g transform="translate(0,310)"><text x="70" y="18" font-size="13" fill="#202124" font-family="Segoe UI,Arial">After LTTB downsample -> 1500 points  (shape points fed to AI)</text><line x1="70" y1="259.9" x2="1160" y2="259.9" stroke="#e8eaed" stroke-width="1"/><text x="6" y="262.9" font-size="10" fill="#5f6368">0.0 A</text><line x1="70" y1="249.2" x2="1160" y2="249.2" stroke="#e8eaed" stroke-width="1"/><text x="6" y="252.2" font-size="10" fill="#5f6368">1.1 A</text><line x1="70" y1="212.5" x2="1160" y2="212.5" stroke="#e8eaed" stroke-width="1"/><text x="6" y="215.5" font-size="10" fill="#5f6368">5.0 A</text><line x1="70" y1="165.1" x2="1160" y2="165.1" stroke="#e8eaed" stroke-width="1"/><text x="6" y="168.1" font-size="10" fill="#5f6368">10.0 A</text><line x1="70" y1="117.7" x2="1160" y2="117.7" stroke="#e8eaed" stroke-width="1"/><text x="6" y="120.7" font-size="10" fill="#5f6368">15.0 A</text><line x1="70" y1="70.3" x2="1160" y2="70.3" stroke="#e8eaed" stroke-width="1"/><text x="6" y="73.3" font-size="10" fill="#5f6368">20.0 A</text><line x1="70" y1="34.0" x2="1160" y2="34.0" stroke="#e8eaed" stroke-width="1"/><text x="6" y="37.0" font-size="10" fill="#5f6368">23.8 A</text><polyline fill="none" stroke="#1a73e8" stroke-width="1" points="70.0,259.8 70.5,260.0 71.0,259.8 72.0,260.0 72.5,259.8 73.0,260.0 74.0,259.8 75.0,259.8 75.5,260.0 76.5,259.8 77.1,260.0 77.5,259.8 78.1,260.0 79.1,259.8 79.6,260.0 80.6,259.9 81.6,259.8 82.1,260.0 82.6,259.8 83.6,260.0 84.1,259.8 84.6,260.0 85.6,259.8 86.6,259.8 87.1,259.9 88.1,259.8 88.6,260.0 89.1,259.8 90.1,259.9 90.6,259.8 91.1,260.0 92.1,259.9 93.2,259.8 93.6,260.0 94.2,259.8 95.2,259.9 95.7,259.8 96.7,259.8 97.2,259.8 98.2,259.8 98.7,259.9 99.7,259.8 100.2,260.0 100.7,259.8 101.7,259.9 102.7,260.0 103.2,259.8 103.7,259.9 104.7,259.8 105.2,260.0 105.7,259.8 106.8,259.9 107.2,259.8 108.3,259.8 109.3,259.9 109.8,259.8 110.3,259.9 110.8,259.8 111.8,259.9 112.3,259.8 113.3,259.8 114.3,259.9 114.8,259.8 115.3,259.9 116.3,259.8 116.8,259.9 117.3,259.8 118.3,259.9 119.3,259.9 119.8,259.8 120.8,259.9 121.4,259.8 121.8,259.9 122.9,259.9 123.4,259.9 123.9,259.8 124.9,259.9 125.9,259.9 126.4,259.8 126.9,259.9 127.9,259.8 128.9,259.8 129.4,259.9 129.9,259.9 130.9,259.9 131.4,259.9 131.9,259.9 132.9,259.9 133.9,259.8 134.4,259.9 134.9,259.9 136.0,259.9 136.4,259.9 137.0,259.9 138.0,259.9 139.0,259.9 139.5,259.9 140.0,259.9 141.0,259.9 141.5,259.8 142.5,259.9 143.0,259.9 143.5,259.9 144.5,259.9 145.5,259.9 146.0,259.9 147.0,259.2 147.5,256.9 148.0,256.8 149.0,257.7 149.6,257.6 150.6,257.9 151.1,258.0 152.1,258.0 152.6,257.9 153.6,257.9 154.1,257.8 154.6,257.7 155.6,257.6 156.1,257.5 157.1,257.4 157.6,257.7 158.1,257.8 159.1,257.9 159.6,258.0 160.6,258.0 161.6,257.9 162.1,258.0 162.6,258.0 163.6,258.0 164.2,258.0 165.2,258.0 165.7,258.0 166.7,258.0 167.2,258.0 167.7,258.0 168.7,258.0 169.2,257.9 169.7,258.0 170.7,258.0 171.2,258.0 172.2,258.0 173.2,258.0 173.7,258.0 174.2,257.9 175.2,258.0 175.7,257.9 176.2,258.0 177.2,258.0 178.2,258.0 178.8,258.0 179.2,258.0 180.3,258.0 180.7,257.9 181.8,258.0 182.3,258.0 183.3,257.9 183.8,258.0 184.8,258.0 185.3,258.0 185.8,258.0 186.8,258.0 187.8,258.0 188.3,257.9 188.8,258.0 189.8,258.0 190.3,258.0 190.8,257.9 191.8,258.0 192.4,257.9 193.3,258.0 193.9,258.0 194.9,257.9 195.4,258.0 195.9,257.9 196.9,258.0 197.9,258.0 198.4,258.0 199.4,258.0 199.9,258.0 200.9,257.9 201.4,258.0 201.9,258.0 202.4,257.9 203.4,258.0 204.4,258.0 204.9,257.9 205.4,258.0 206.4,258.0 207.4,258.0 207.9,258.0 208.5,257.9 209.5,258.0 210.0,257.9 210.5,258.0 211.5,258.0 212.5,257.9 213.0,258.0 214.0,258.0 214.5,258.0 215.0,257.9 215.5,258.0 216.5,257.9 217.0,258.0 218.0,258.0 219.0,257.9 219.5,258.0 220.0,257.9 221.0,258.0 221.5,257.9 222.0,258.0 223.1,257.9 224.1,257.9 224.6,258.0 225.6,257.9 226.1,258.1 226.6,257.9 227.6,258.0 228.1,257.9 228.6,258.1 229.6,258.0 230.6,257.9 231.1,258.0 231.6,257.9 232.6,258.0 233.1,257.9 234.1,257.9 234.6,257.9 235.6,257.9 236.1,258.0 236.7,258.0 237.7,258.0 238.1,257.9 239.2,258.0 240.2,258.1 240.7,257.9 241.2,258.0 242.2,257.9 242.7,258.1 243.2,257.9 244.2,258.0 245.2,258.1 245.7,257.9 246.7,258.0 247.2,257.9 247.7,258.0 248.2,257.9 249.2,258.0 250.2,258.0 250.7,257.9 251.7,258.0 252.3,257.9 252.8,258.0 253.8,257.9 254.3,258.0 254.8,257.9 255.8,258.0 256.8,258.0 257.3,257.9 258.3,258.0 258.8,257.9 259.3,258.0 260.3,258.0 260.8,258.0 261.8,258.0 262.3,257.9 263.3,258.0 263.8,257.9 264.3,258.0 265.3,258.0 266.3,257.9 266.9,258.0 267.4,258.0 268.4,258.0 268.9,257.9 269.4,258.0 270.4,257.9 271.4,257.9 271.9,258.0 272.9,257.9 273.4,258.0 273.9,257.9 274.4,258.0 275.4,257.9 275.9,258.0 276.9,258.0 277.9,257.9 278.4,258.0 278.9,257.9 279.9,258.0 280.5,257.9 280.9,258.0 282.0,257.9 282.4,258.0 283.5,258.0 284.5,257.9 285.0,258.0 286.0,258.0 286.5,258.0 287.0,257.9 288.0,258.0 288.5,257.9 289.0,258.0 290.0,257.9 290.5,258.0 291.5,258.0 292.5,257.9 293.0,258.0 293.5,257.9 294.0,258.0 295.0,258.0 296.0,257.9 296.6,258.0 297.6,257.9 298.1,258.0 298.6,257.9 299.6,258.0 300.1,257.9 300.6,258.0 301.6,257.9 302.6,257.9 303.1,258.0 303.6,257.9 304.6,258.0 305.1,257.9 306.1,257.9 306.6,257.9 307.6,257.9 308.1,258.1 309.1,257.9 309.6,258.1 310.2,257.9 311.2,258.0 312.2,258.1 312.7,257.9 313.2,258.0 314.2,257.9 314.7,258.1 315.2,257.9 316.2,258.0 317.2,258.1 317.7,257.9 318.7,258.0 319.2,257.8 319.7,258.1 320.2,257.9 321.2,258.1 321.7,257.8 322.7,258.0 323.7,258.1 324.2,257.8 324.8,258.0 325.8,257.9 326.3,258.1 326.8,257.9 327.8,258.0 328.8,258.1 329.3,257.9 330.3,258.0 330.8,257.9 331.3,258.1 332.3,258.0 332.8,258.1 333.3,257.8 334.3,257.9 335.3,258.1 335.8,257.9 336.3,258.0 337.3,257.9 337.8,258.1 338.8,258.0 339.4,258.0 340.4,258.1 340.9,257.9 341.4,258.0 342.4,257.9 342.9,258.1 343.9,258.0 344.9,257.9 345.4,258.1 345.9,257.9 346.9,258.1 347.4,257.9 347.9,258.0 348.9,257.9 349.4,258.1 350.4,258.0 351.4,257.9 351.9,258.1 352.4,257.9 353.0,258.0 354.0,257.9 354.5,258.0 355.5,258.0 356.5,257.9 357.0,258.0 357.5,257.9 358.5,258.0 359.0,257.9 359.5,258.0 360.5,258.0 361.5,257.9 362.0,258.0 363.0,257.9 363.5,258.0 364.0,257.9 365.0,258.0 365.5,257.9 366.5,257.9 367.0,258.0 368.0,257.9 368.6,258.0 369.1,257.9 370.1,258.0 371.1,258.0 371.6,257.9 372.1,258.0 373.1,257.9 373.6,258.0 374.1,257.9 375.1,258.0 376.1,258.0 376.6,257.9 377.6,258.0 378.1,257.9 378.6,258.0 379.1,258.0 380.1,258.0 380.6,257.9 381.6,258.0 382.7,258.0 383.1,257.9 383.7,258.0 384.7,257.9 385.2,258.0 385.7,257.9 386.7,258.0 387.7,258.0 388.2,258.0 389.2,258.0 389.7,258.0 390.2,258.0 391.2,258.0 391.7,258.0 392.7,258.0 393.2,258.0 394.2,258.0 394.7,257.9 395.2,258.0 396.2,258.0 397.3,258.0 397.7,258.0 398.3,258.0 399.3,258.0 399.8,258.0 400.3,258.0 401.3,258.0 401.8,258.0 402.8,258.0 403.3,257.9 404.3,257.9 404.8,258.0 405.8,257.9 406.3,258.0 406.8,258.0 407.8,258.0 408.8,258.0 409.3,258.0 409.8,258.0 410.8,258.0 411.3,258.0 411.9,257.9 412.9,258.0 413.4,257.9 414.4,258.0 415.4,258.0 415.9,257.9 416.4,258.0 417.4,258.0 417.9,258.0 418.4,257.9 419.4,258.0 420.4,258.0 420.9,257.9 421.4,258.0 422.4,257.9 422.9,258.0 423.9,258.0 424.4,258.0 424.9,257.9 425.9,258.0 426.5,258.0 427.5,257.9 428.0,258.0 429.0,258.0 430.0,257.9 430.5,258.0 431.0,257.9 432.0,258.0 432.5,257.9 433.0,258.0 434.0,258.0 435.0,258.0 435.5,258.0 436.5,258.0 437.0,258.0 437.5,257.9 438.0,258.0 439.0,257.9 439.5,258.0 440.5,258.0 441.6,258.0 442.1,258.0 442.6,257.9 443.6,258.0 444.1,257.9 445.1,257.9 445.6,258.0 446.6,258.0 447.1,258.0 447.6,258.0 448.6,258.0 449.6,258.0 450.1,257.9 450.6,258.0 451.6,257.9 452.1,258.0 453.1,258.0 453.6,258.0 454.1,258.0 455.1,258.0 456.2,258.0 456.7,257.9 457.2,258.0 457.7,257.9 458.7,258.0 459.2,257.9 460.2,257.9 461.2,258.0 461.7,257.9 462.2,258.0 463.2,257.9 463.7,258.0 464.2,257.9 465.2,258.0 466.2,258.0 466.7,257.9 467.7,258.0 468.2,257.9 468.7,258.0 469.7,258.0 470.2,258.0 470.8,257.9 471.8,257.9 472.8,258.0 473.3,257.9 473.8,258.0 474.8,257.9 475.8,257.9 476.3,258.0 476.8,258.0 477.8,258.0 478.3,257.9 478.8,258.0 479.8,257.9 480.3,258.0 481.3,258.0 482.3,257.9 482.8,258.0 483.3,257.9 483.8,258.0 484.8,257.9 485.4,258.0 486.4,258.0 487.4,257.9 487.9,258.0 488.4,257.9 489.4,258.0 489.9,257.9 490.4,258.0 491.4,257.9 491.9,258.0 492.9,258.0 493.9,257.9 494.4,258.0 494.9,257.9 495.9,258.0 496.4,257.9 496.9,258.0 497.9,258.0 499.0,257.9 499.4,258.0 500.0,257.9 501.0,258.0 501.5,257.9 502.5,257.9 503.0,257.9 504.0,257.9 504.5,258.0 505.0,257.9 506.0,258.0 507.0,258.0 507.5,257.9 508.5,258.0 509.0,257.9 509.5,258.0 510.5,258.0 511.0,258.0 511.5,257.9 512.5,258.0 513.6,258.0 514.0,257.9 514.6,258.0 515.6,258.0 516.1,258.0 516.6,257.9 517.6,258.0 518.6,258.0 519.1,257.9 519.6,258.0 520.6,257.9 521.1,258.0 522.1,258.0 522.6,258.0 523.6,258.0 524.1,258.0 525.1,258.0 525.6,257.9 526.1,258.0 527.2,257.9 527.6,258.0 528.7,257.9 529.2,258.0 529.7,257.9 530.7,258.0 531.7,258.0 532.2,257.9 533.2,258.0 533.7,257.9 534.2,258.0 535.2,257.9 535.7,258.0 536.2,257.9 537.2,258.0 537.7,257.9 538.7,257.9 539.7,258.0 540.2,257.9 541.2,257.9 541.8,258.0 542.2,258.0 543.3,258.0 543.8,257.9 544.8,257.9 545.3,257.8 545.8,258.0 546.8,257.9 547.3,258.0 548.3,258.0 548.8,257.9 549.8,258.0 550.3,257.8 550.8,258.0 551.8,257.9 552.3,258.0 553.3,258.0 554.3,257.8 554.8,258.0 555.3,257.9 555.8,258.0 556.8,257.8 557.4,258.0 558.3,258.0 559.4,257.8 559.9,258.0 560.4,257.8 561.4,258.0 561.9,257.8 562.4,258.0 563.4,257.9 564.4,257.8 564.9,258.0 565.9,257.9 566.4,258.0 566.9,257.8 567.9,257.9 568.4,257.8 568.9,258.1 570.0,258.0 570.9,257.8 571.5,258.1 571.9,257.8 573.0,258.0 573.5,257.8 574.5,257.9 575.0,257.9 576.0,257.8 576.5,258.0 577.5,257.9 578.0,258.0 578.5,257.8 579.5,257.9 580.5,258.0 581.0,257.8 581.5,258.0 582.5,257.8 583.0,258.1 583.5,257.8 584.5,258.0 585.0,257.8 586.1,257.9 587.1,258.0 587.6,257.8 588.1,258.0 589.1,257.9 589.6,258.0 590.1,257.8 591.1,257.9 592.1,258.0 592.6,257.8 593.1,258.0 594.1,257.9 594.6,258.0 595.1,257.8 596.1,258.0 597.1,258.0 597.6,257.9 598.6,258.0 599.1,257.8 599.6,257.9 600.7,257.9 601.1,257.9 601.7,257.8 602.7,257.9 603.7,257.9 604.2,257.8 604.7,257.9 605.7,257.9 606.7,257.8 607.2,257.9 607.7,257.9 608.7,258.0 609.2,257.8 609.7,257.9 610.7,257.8 611.2,258.0 612.2,257.9 613.2,257.8 613.7,258.0 614.3,257.9 615.3,257.9 615.7,257.8 616.3,257.9 617.3,257.9 618.3,257.8 618.8,257.9 619.8,257.9 620.3,257.9 620.8,257.8 621.8,257.9 622.3,257.9 622.8,257.9 623.8,257.9 624.3,257.9 625.3,257.9 625.8,257.9 626.8,257.9 627.8,257.9 628.3,257.9 628.9,257.9 629.9,257.9 630.4,257.9 631.4,257.9 631.9,257.9 632.9,257.9 633.4,257.9 633.9,257.9 634.9,257.9 635.4,257.9 635.9,257.8 636.9,257.9 637.9,257.9 638.4,257.9 638.9,257.9 639.9,257.9 640.9,257.9 641.4,257.9 641.9,257.9 642.4,257.9 643.5,257.9 643.9,257.9 645.0,257.9 645.5,257.9 646.5,257.9 647.5,257.9 648.0,257.9 648.5,257.9 649.5,257.9 650.0,257.9 651.0,257.9 651.5,257.9 652.5,257.9 653.0,257.9 654.0,257.9 654.5,257.9 655.0,257.9 656.0,257.9 656.5,257.9 657.5,257.8 658.1,158.8 658.5,104.6 659.6,100.6 660.0,100.5 661.1,248.5 661.6,253.7 662.6,252.6 663.1,252.6 663.6,253.7 664.6,254.6 665.1,254.8 666.1,254.7 666.6,254.6 667.6,254.9 668.1,254.9 668.6,254.9 669.6,255.0 670.1,255.2 671.1,255.2 672.1,255.1 672.6,255.4 673.2,255.2 674.2,255.4 674.7,255.4 675.2,255.5 676.2,255.4 677.2,255.4 677.7,255.7 678.2,255.8 679.2,255.4 679.7,255.4 680.7,255.7 681.2,255.5 681.7,255.5 682.7,255.7 683.2,255.7 684.2,255.5 684.7,255.3 685.7,255.3 686.2,255.2 687.2,255.9 687.8,255.9 688.8,255.8 689.3,255.8 689.8,255.4 690.8,255.2 691.8,255.9 692.3,255.9 693.3,255.4 693.8,255.7 694.3,255.8 694.8,255.7 695.8,255.3 696.8,255.9 697.3,255.9 698.3,255.8 698.8,255.8 699.3,255.4 700.3,255.8 700.8,255.6 701.8,255.7 702.4,255.7 702.8,255.3 703.9,255.9 704.9,255.9 705.4,255.7 705.9,255.3 706.9,255.8 707.4,255.9 708.4,255.5 708.9,255.6 709.9,255.8 710.4,255.8 711.4,255.8 711.9,254.8 712.9,255.7 713.4,198.4 713.9,132.4 714.4,113.8 715.4,100.6 716.0,108.1 717.0,241.9 717.5,244.2 718.5,244.7 719.0,244.7 720.0,245.6 720.5,245.0 721.0,245.9 722.0,245.3 722.5,246.1 723.5,244.7 724.0,244.9 725.0,246.1 726.0,246.2 726.5,246.1 727.0,246.2 728.0,245.6 728.5,246.2 729.5,246.5 730.0,247.1 731.0,246.4 731.6,246.7 732.6,246.6 733.1,245.9 733.6,246.2 734.1,247.2 735.1,246.4 735.6,246.0 736.6,246.4 737.1,246.0 738.1,246.4 739.1,247.0 739.6,246.7 740.1,246.4 741.1,246.2 741.6,246.7 742.6,245.3 743.1,246.8 743.6,246.4 744.6,246.6 745.2,246.2 746.2,246.2 746.7,247.0 747.7,246.5 748.2,246.7 748.7,246.1 749.7,246.9 750.2,246.5 751.2,246.7 751.7,247.2 752.7,246.3 753.2,246.6 754.2,246.5 754.7,246.7 755.2,246.1 756.2,246.8 756.7,247.1 757.7,246.7 758.2,247.0 759.2,246.7 759.7,246.3 760.7,246.6 761.3,246.3 762.3,246.8 762.8,246.4 763.3,246.7 764.3,246.7 765.3,245.2 765.8,246.4 766.3,247.6 766.8,248.9 767.8,249.8 768.3,250.1 769.3,34.0 769.8,41.1 770.8,233.2 771.3,241.2 772.3,245.6 772.8,246.2 773.8,247.5 774.3,247.5 775.3,246.6 775.9,247.1 776.9,247.5 777.4,247.1 778.4,247.5 778.9,247.4 779.4,247.5 779.9,247.2 780.9,247.5 781.9,247.2 782.4,247.4 782.9,247.8 783.9,247.6 784.4,247.1 785.4,247.0 785.9,247.8 786.4,247.2 787.4,247.1 787.9,247.8 788.9,247.5 789.5,247.4 790.5,247.4 791.0,247.0 792.0,247.9 792.5,247.4 793.5,246.2 794.0,247.2 794.5,248.6 795.5,247.8 796.5,247.3 797.0,247.9 797.5,246.7 798.5,247.5 799.0,248.3 800.0,246.9 800.5,247.1 801.0,248.1 802.0,248.0 802.5,247.3 803.5,247.6 804.5,247.4 805.1,247.0 805.6,247.9 806.1,247.4 807.1,247.5 808.1,247.9 808.6,247.5 809.6,247.2 810.1,247.4 811.1,247.7 811.6,247.0 812.1,248.0 812.6,247.5 813.6,247.3 814.6,247.9 815.1,247.2 815.6,230.6 816.6,226.9 817.1,228.0 818.1,227.2 818.7,227.3 819.7,227.0 820.2,227.5 820.7,226.8 821.7,227.0 822.2,226.0 823.2,228.1 823.7,223.7 824.7,119.0 825.2,225.4 825.7,242.9 826.7,247.4 827.7,244.1 828.2,226.4 828.7,227.5 829.7,225.3 830.2,227.5 831.2,226.2 831.7,225.9 832.7,226.7 833.3,225.7 834.3,226.7 834.8,225.0 835.8,227.4 836.3,238.0 836.8,249.5 837.8,245.7 838.3,246.8 839.3,248.5 839.8,247.1 840.8,221.9 841.3,221.1 841.8,222.6 842.8,222.4 843.3,221.1 844.3,221.7 844.8,220.6 845.3,222.0 846.3,220.6 846.9,222.8 847.8,221.7 848.4,223.0 849.4,248.6 850.4,246.6 850.9,247.4 851.4,247.1 852.4,247.2 852.9,247.3 853.4,247.6 854.4,244.7 855.4,245.9 855.9,245.3 856.4,243.6 857.4,247.0 857.9,246.7 858.9,247.0 859.4,247.3 860.4,246.4 860.9,247.0 861.4,246.4 862.4,247.0 863.5,246.9 864.0,246.7 864.5,246.5 865.0,247.0 866.0,247.0 866.5,246.7 867.5,246.9 868.5,245.7 869.0,247.1 870.0,246.7 870.5,246.7 871.0,247.0 872.0,246.1 872.5,246.8 873.0,246.5 874.0,246.5 874.5,246.3 875.5,246.4 876.0,246.6 877.0,246.5 877.6,246.4 878.6,246.3 879.1,246.3 880.1,246.5 880.6,246.1 881.6,246.2 882.1,246.0 882.6,246.6 883.6,246.3 884.1,246.3 884.6,246.0 885.6,246.3 886.6,245.5 887.1,244.5 887.6,246.0 888.6,246.0 889.6,245.7 890.1,246.1 890.6,245.7 891.6,245.6 892.2,246.3 892.7,245.8 893.7,245.8 894.7,245.4 895.2,245.7 896.2,246.0 896.7,245.7 897.2,245.6 897.7,245.5 898.7,245.6 899.7,245.8 900.2,245.6 901.2,245.2 901.7,245.6 902.7,244.7 903.2,244.8 903.7,245.4 904.8,245.2 905.2,245.9 906.3,236.6 906.8,236.6 907.8,236.7 908.3,236.5 908.8,235.9 909.8,235.9 910.3,236.8 910.8,236.8 911.8,235.0 912.3,237.5 913.3,235.7 913.8,236.5 914.8,236.1 915.8,236.5 916.3,237.4 916.8,239.4 917.3,238.9 918.3,240.1 919.4,239.7 919.8,239.8 920.4,240.3 921.4,239.7 921.9,240.0 922.9,239.5 923.4,240.1 923.9,239.4 924.9,239.6 925.4,239.9 926.4,239.6 927.4,239.2 927.9,239.5 928.9,239.3 929.4,239.2 929.9,239.5 930.4,239.3 931.4,239.7 931.9,239.2 932.9,239.2 934.0,239.4 934.4,239.0 935.0,239.0 935.9,238.8 936.5,239.7 937.0,239.0 938.0,238.8 938.5,238.9 939.5,238.9 940.0,239.4 941.0,238.4 941.5,238.8 942.5,239.0 943.0,238.7 944.0,237.8 944.5,239.7 945.0,238.1 946.0,238.3 946.5,238.6 947.6,238.3 948.5,238.5 949.1,237.9 949.5,238.5 950.1,237.6 951.1,237.7 952.1,237.7 952.6,238.0 953.6,237.7 954.1,238.2 954.6,237.1 955.6,237.5 956.1,237.8 957.1,238.3 957.6,237.5 958.6,239.0 959.1,237.2 959.6,237.5 960.6,237.5 961.1,237.1 962.1,237.2 962.6,238.0 963.1,236.6 964.1,236.9 964.7,237.7 965.7,236.6 966.7,237.8 967.2,236.7 968.2,236.7 968.7,237.6 969.2,237.1 969.7,236.6 970.7,237.0 971.2,237.5 972.2,236.9 972.7,237.1 973.7,237.1 974.7,236.5 975.2,237.2 975.7,236.6 976.7,237.2 977.2,236.0 977.7,237.6 978.7,236.8 979.8,236.2 980.3,236.5 980.8,236.5 981.8,237.1 982.3,235.5 982.8,236.6 983.8,236.1 984.3,236.8 985.3,236.6 986.3,235.9 986.8,235.8 987.3,236.4 988.3,235.7 988.8,236.4 989.8,236.1 990.3,236.6 991.3,236.0 991.9,236.7 992.3,236.2 993.3,236.6 993.9,235.9 994.9,236.4 995.4,236.5 996.4,236.0 996.9,236.4 997.9,236.0 998.4,237.0 998.9,235.6 999.9,235.9 1000.4,236.3 1001.4,235.8 1001.9,236.2 1002.9,235.8 1003.4,235.8 1004.4,235.8 1004.9,236.7 1005.9,236.2 1006.5,235.3 1006.9,236.2 1008.0,236.0 1008.5,235.5 1009.5,235.9 1010.0,235.9 1011.0,235.9 1011.5,235.4 1012.0,235.6 1013.0,235.2 1014.0,234.9 1014.5,236.0 1015.0,235.6 1016.0,235.3 1016.5,235.7 1017.5,236.9 1018.0,234.5 1019.0,235.6 1019.5,234.9 1020.0,235.7 1021.1,234.9 1021.5,235.8 1022.1,234.7 1023.1,235.7 1023.6,234.3 1024.6,235.2 1025.6,234.8 1026.1,234.3 1026.6,235.9 1027.6,234.2 1028.1,235.0 1028.6,235.1 1029.6,234.9 1030.6,235.9 1031.1,234.2 1031.6,234.8 1032.6,234.4 1033.6,235.1 1034.1,234.8 1034.6,234.7 1035.1,233.7 1036.1,234.7 1037.2,234.9 1037.6,233.9 1038.2,234.7 1039.2,234.5 1040.2,234.0 1040.7,234.2 1041.2,234.8 1041.7,233.9 1042.7,233.9 1043.2,234.1 1044.2,233.8 1044.7,234.6 1045.7,234.0 1046.2,235.6 1047.2,234.6 1047.7,234.0 1048.2,234.5 1049.2,234.9 1050.2,234.3 1050.8,234.3 1051.8,233.7 1052.3,234.9 1052.8,234.2 1053.8,234.7 1054.3,233.9 1054.8,235.0 1055.8,233.8 1056.3,234.8 1057.3,233.6 1057.8,234.6 1058.8,234.4 1059.3,233.8 1060.3,234.0 1060.8,233.8 1061.3,234.4 1062.3,233.4 1062.8,235.0 1063.8,234.5 1064.3,233.5 1065.4,234.3 1065.8,233.1 1066.9,233.5 1067.4,233.0 1067.9,234.4 1068.9,234.0 1069.4,233.5 1070.4,233.8 1070.9,233.4 1071.9,234.0 1072.4,231.8 1073.4,233.0 1073.9,233.8 1074.9,233.6 1075.4,234.2 1076.4,233.8 1076.9,234.3 1077.4,233.7 1078.4,234.3 1079.4,234.0 1080.0,233.1 1080.4,234.3 1081.5,233.3 1082.0,234.3 1082.5,233.3 1083.5,233.9 1084.5,234.2 1085.0,233.0 1086.0,233.8 1086.5,233.5 1087.0,233.8 1087.5,233.2 1088.5,233.5 1089.5,234.0 1090.0,233.4 1091.0,233.4 1091.5,233.8 1092.5,234.2 1093.0,234.1 1093.6,235.1 1094.0,233.7 1095.1,234.4 1095.6,234.5 1096.6,234.3 1097.6,234.4 1098.1,233.8 1099.1,234.7 1099.6,234.4 1100.1,234.7 1101.1,233.9 1101.6,235.5 1102.1,234.6 1103.1,234.1 1103.6,235.3 1104.6,234.5 1105.6,233.6 1106.1,234.5 1106.6,234.4 1107.6,234.8 1108.2,234.4 1109.2,234.9 1109.7,234.5 1110.2,234.6 1111.2,234.1 1112.2,235.2 1112.7,234.2 1113.2,234.8 1114.2,234.0 1114.7,234.2 1115.7,233.8 1116.2,234.9 1116.7,234.4 1117.7,235.0 1118.7,234.8 1119.2,235.0 1119.7,234.3 1120.2,235.3 1121.2,235.1 1122.2,234.9 1122.8,235.6 1123.2,235.0 1124.3,235.5 1125.3,234.2 1125.8,236.3 1126.3,234.8 1126.8,235.3 1127.8,235.3 1128.3,234.5 1129.3,235.5 1129.8,234.7 1130.8,235.8 1131.8,235.9 1132.3,236.0 1132.8,236.7 1133.3,237.1 1134.3,237.0 1134.8,236.3 1135.8,236.7 1136.8,236.4 1137.3,237.4 1137.9,237.0 1138.9,236.9 1139.4,237.5 1139.9,237.3 1140.9,237.2 1141.9,237.1 1142.4,237.2 1143.4,237.4 1143.9,236.9 1144.4,237.5 1145.4,238.2 1145.9,237.8 1146.4,238.2 1147.4,237.9 1147.9,238.7 1148.9,238.3 1149.9,237.2 1150.4,239.6 1150.9,238.0 1151.9,237.5 1152.5,238.7 1152.9,238.7 1154.0,237.2 1155.0,232.2 1155.5,232.1 1156.5,232.7 1157.0,231.9 1158.0,231.8 1158.5,232.0 1159.5,232.4 1160.0,231.5"/></g></svg>