<svg xmlns="http://www.w3.org/2000/svg" viewBox="0 0 80 48">
  <rect x="1" y="1" width="78" height="46" rx="4" fill="#1a1a1a" stroke="#444" stroke-width="1.5"/>
  <rect x="4" y="4" width="30" height="18" rx="2" fill="#0a2040" stroke="#335" stroke-width="0.8"/>
  <text x="19" y="15" font-size="6" fill="#4ae68a" text-anchor="middle" font-family="monospace">N6705C</text>
  <rect x="38" y="4" width="18" height="18" rx="2" fill="#111" stroke="#335" stroke-width="0.8"/>
  <circle cx="47" cy="13" r="5" fill="none" stroke="#3a6fd4" stroke-width="1"/>
  <circle cx="47" cy="13" r="1.5" fill="#3a6fd4"/>
  <rect x="60" y="4" width="16" height="18" rx="2" fill="#111" stroke="#335" stroke-width="0.8"/>
  <rect x="63" y="8" width="4" height="3" rx="1" fill="#d4a514"/>
  <rect x="69" y="8" width="4" height="3" rx="1" fill="#18b67a"/>
  <rect x="63" y="14" width="4" height="3" rx="1" fill="#2f6fed"/>
  <rect x="69" y="14" width="4" height="3" rx="1" fill="#d14b72"/>
  <rect x="4" y="26" width="72" height="4" rx="1" fill="#222"/>
  <circle cx="12" cy="38" r="4" fill="#d4a514" opacity="0.9"/>
  <circle cx="24" cy="38" r="4" fill="#18b67a" opacity="0.9"/>
  <circle cx="36" cy="38" r="4" fill="#2f6fed" opacity="0.9"/>
  <circle cx="48" cy="38" r="4" fill="#d14b72" opacity="0.9"/>
  <rect x="58" y="34" width="16" height="8" rx="2" fill="#222" stroke="#444" stroke-width="0.5"/>
</svg>
