<svg viewBox="0 0 32 32" fill="none" xmlns="http://www.w3.org/2000/svg"><defs><linearGradient id="pmu-grad" x1="0%" y1="0%" x2="100%" y2="100%"><stop offset="0%" stop-color="#10b981"></stop><stop offset="100%" stop-color="#047857"></stop></linearGradient><linearGradient id="pmu-bolt" x1="0%" y1="0%" x2="100%" y2="100%"><stop offset="0%" stop-color="#a7f3d0"></stop><stop offset="100%" stop-color="#34d399"></stop></linearGradient></defs><rect x="5" y="5" width="22" height="22" rx="5" fill="url(#pmu-grad)" fill-opacity="0.15"></rect><rect x="5" y="5" width="22" height="22" rx="5" stroke="url(#pmu-grad)" stroke-width="2"></rect><path d="M2 10h3M2 16h3M2 22h3" stroke="url(#pmu-grad)" stroke-width="2" stroke-linecap="round"></path><path d="M30 10h-3M30 16h-3M30 22h-3" stroke="url(#pmu-grad)" stroke-width="2" stroke-linecap="round"></path><path d="M10 2v3M16 2v3M22 2v3" stroke="url(#pmu-grad)" stroke-width="2" stroke-linecap="round"></path><path d="M10 30v-3M16 30v-3M22 30v-3" stroke="url(#pmu-grad)" stroke-width="2" stroke-linecap="round"></path><circle cx="10" cy="10" r="1.5" fill="url(#pmu-grad)" fill-opacity="0.6"></circle><circle cx="22" cy="10" r="1.5" fill="url(#pmu-grad)" fill-opacity="0.6"></circle><circle cx="10" cy="22" r="1.5" fill="url(#pmu-grad)" fill-opacity="0.6"></circle><circle cx="22" cy="22" r="1.5" fill="url(#pmu-grad)" fill-opacity="0.6"></circle><path d="M17.5 9l-6.5 8h4.5l-1.5 6 7-9h-4.5l1.5-5z" fill="url(#pmu-bolt)"></path></svg>
